<svg width="205" height="170" viewBox="0 0 205 170" fill="none" xmlns="http://www.w3.org/2000/svg">
<path d="M25.8538 57.6403L26.8758 53.551L28.1027 49.052L25.0354 45.9847L27.0807 44.5542L26.8758 41.0771L28.1027 36.1695L30.3516 30.8534L31.9882 26.3544L36.0775 25.1275L37.5093 22.0602L41.3936 18.7893L44.8707 18.4814L47.6312 21.8553L48.8581 18.3795H51.7204L52.9473 16.2325L54.0724 13.7787L54.481 9.48453L56.3213 7.64418L56.6305 5.08855L59.7996 2.42987L61.0277 5.08735L62.8791 6.93874H66.4493L68.2345 8.72386L71.3422 8.52512L73.7224 9.98019H78.0865L80.4004 12.2941L83.2443 12.6254L84.9632 10.9065H88.401L90.5836 8.72386H93.2938L95.5428 9.84768C95.5428 9.84768 96.6003 11.5003 97.1954 11.5003C97.7904 11.5003 97.9229 14.4755 97.9229 14.4755H100.833L102.817 16.8557H105.462L105.991 15.1368L107.71 16.8557C107.71 16.8557 110.486 18.1783 111.016 18.1783C111.546 18.1783 113.925 19.5009 113.925 19.5009L115.777 20.5585L118.157 21.4848L121.463 20.8235L124.372 21.7486L123.315 25.1876L123.314 29.2873L125.834 28.829L129.6 28.4708L131.752 30.6227L136.863 34.1207L138.836 32.1478L142.691 36.0027V44.0732L147.535 48.9158L152.018 46.9429L157.04 45.6878L161.524 47.6607L165.649 45.6878L168.338 51.4272L173.629 52.4137L177.665 56.4489L179.099 60.3946L186.633 64.3403L189.413 68.3756L191.295 66.4923L195.779 67.5683L198.289 63.6226L203.042 67.837L200.622 70.6171L199.904 80.3023H194.164L191.744 82.9021L189.681 80.8397L184.749 82.5426L181.565 85.7264L180.175 84.3363H176.32L174.078 82.0948L172.643 78.6877H169.056L166.725 81.0188L160.448 82.6334L155.606 81.5574H151.481L149.866 85.6822H145.741L142.872 82.8125L140.54 85.1448L139.464 89.4488L136.863 92.0498L131.572 92.6768L127.089 94.1122L122.964 94.83L120.454 97.3414L117.047 98.0579L114.729 100.393V104.126L116.701 105.475L118.049 106.823V108.793L118.774 110.661L116.804 112.632L114.316 113.254L113.07 114.498L111.151 116.417H108.818V118.023L107.003 119.839L104.67 121.446L102.699 120.514L100.366 123.159L98.4468 125.077L99.1731 128.292L98.4468 133.685L100.107 136.693L99.6909 143.122H96.2691L95.1281 145.197L91.083 147.687L87.5054 149.604L85.4822 151.627L83.5118 151.732L80.6335 153.035L82.2714 157.239L80.7758 158.734H76.6436L73.5089 157.025L72.7961 154.744L69.8037 154.174L66.9548 156.74H61.1123L59.6168 161.654L54.8417 166.428H49.5697L47.7171 168.281H44.8682L43.4413 166.287H39.8993V163.703L38.3264 162.131L34.8506 160.495V156.201L32.1735 153.189L31.5785 152.52L30.3516 147.816L27.2843 145.976L24.0134 142.296L25.2403 138.002L24.0134 131.663L20.1278 128.8L15.6288 125.324L14.1982 120.621L11.131 118.167L10.1078 115.304L12.7664 112.237L14.8117 107.738V103.444L12.5616 99.3548L10.3126 95.879L12.3579 94.2435L13.5848 91.1763H16.0386L17.8789 89.5396L19.3095 84.0185L19.7193 80.7477L18.0826 76.6572L15.8337 74.4082L12.7664 73.9997L10.5175 71.5459L8.6772 68.8872L5.91668 71.238L3.76961 69.0921L1.92926 66.0249L3.76961 62.7527L7.65396 58.8671L10.3126 55.7999L11.3347 52.1192L14.4019 51.9156L16.652 54.3694L17.8789 57.4366L21.9682 58.8671L25.8538 57.6403Z" fill="#0E1A23" stroke="#132D42" stroke-width="2"/>
</svg>
