<svg width="59" height="44" viewBox="0 0 59 44" fill="none" xmlns="http://www.w3.org/2000/svg">
<path d="M46.1129 11.1442L45.8704 11.0807L45.6623 11.1604L45.3645 11.4859L44.8826 11.3717L44.5654 11.2581L44.5032 11.3259L44.1987 11.3296L43.7794 11.4757L43.5436 11.7335L43.4012 12.0536L43.2213 12.2503L42.3381 11.9008L41.1432 10.9389L38.5196 12.5411L36.0128 11.3696L35.9874 9.01422L32.8087 5.43799L29.2842 1.30295C29.2842 1.30295 27.6996 1.09542 27.5372 1.07556L27.3103 1.04388L27.4751 1.11027L27.5346 1.35761L27.5322 1.67272L27.4517 1.92497L27.387 2.30789L27.2072 2.50464L26.9401 2.63221L26.6386 2.64951L26.5581 2.90175L26.434 3.03741L26.3442 3.2834L26.2201 3.41901L26.1956 3.61023L25.7824 3.74955L25.6645 3.87843L25.7797 4.0647L25.7177 4.13254L25.4506 4.26011L25.2425 4.33975L24.9473 4.34956L25.0687 4.52909L25.364 4.51928L25.5973 4.57619L25.868 4.75689L26.2914 5.2473L26.562 5.42811L26.7055 5.73154L26.7648 5.97884L26.4696 5.98865L26.1462 5.88194L25.8975 5.82511L25.5709 5.70537L25.4495 5.52587L24.7359 6.30586L24.4093 6.18612L24.232 6.06773L24.266 5.88281L24.3218 5.82185L24.1972 5.62932L24.1754 5.50535L24.0539 5.32582L23.9047 5.32458L23.7274 5.20619L22.6801 5.24977L22.2915 5.19822L22.1141 5.07971L22.083 4.94953L21.9302 4.63988L21.8462 4.58383L21.3643 4.4696L20.9757 4.41808L20.4969 4.31683L20.1458 4.38839L19.8443 4.40568L19.6331 4.47229L19.3066 4.35255L19.0672 4.30201L18.2901 4.19773L17.9887 4.21488L17.6001 4.16336L17.1615 3.87041L16.9529 3.62176L16.8001 3.31212L16.8026 2.99701L16.765 2.87348L16.5317 2.81654L16.4138 2.94541L16.3737 3.13715L16.5044 3.3229L16.3246 3.51966L16.02 3.52333L15.6966 3.41647L15.4541 3.35304L15.0686 3.31425L14.7421 3.19466L14.5027 3.14411L14.1141 3.09256L13.8746 3.04201L13.5481 2.92238L13.3087 2.87184L12.9201 2.82032L12.5873 2.70743L12.354 2.65052L11.9654 2.599L11.6639 2.61615L11.3375 2.49641L11.0422 2.50622L10.6475 2.46132L10.2964 2.53288L9.99497 2.55002L9.78372 2.61667L9.63457 2.61543L9.39254 2.87996L9.368 3.0711L9.15674 3.13775L8.80207 2.90089L8.68048 2.72143L8.3165 2.47836L8.17675 2.48326L7.96551 2.54976L7.66405 2.56706L7.43074 2.51011L7.13551 2.51992L6.80278 2.40707L6.53212 2.22623L6.19938 2.11338L5.60892 2.13423L5.2203 2.08271L4.98091 2.03216L3.78445 2.07447L3.39585 2.02295L3.03856 2.10121L2.50754 2.3694L2.32499 2.88124L2.18255 3.20133L2 3.71319L2.27064 3.894L2.42341 4.20365L2.53862 4.38992L2.68204 4.69335L3.67138 5.35409L4.57262 5.32219L4.77447 5.24944L5.16309 5.30096L6.15241 5.96173L6.35785 6.19735L7.07652 6.67729L7.70857 7.41635L7.85199 7.71974L8.21487 9.22963L8.29892 9.28568L8.45169 9.59532L8.48923 9.71873L8.48678 10.0339L8.45279 10.2188L8.57737 10.4113L8.69626 10.9059L8.66559 11.104L8.66927 11.4123L8.72251 11.6664L9.02129 11.9643L9.22989 12.213L9.38263 12.5226L9.29626 12.7818L9.29381 13.0969L9.68859 13.1418L10.0058 13.2553L10.3944 13.3068L10.6338 13.3573L11.293 13.5901L11.5637 13.7709L11.7785 14.0127L12.0788 15.2623L12.216 15.5725L12.2848 15.826L12.4903 16.0616L12.494 16.6981L12.3141 16.8949L12.1378 17.3999L11.9578 17.5966L11.8714 17.8558L11.7534 17.9846L11.6574 18.2374L11.655 18.5525L11.3013 18.9391L11.1281 19.4572L10.4145 20.2372L10.0233 20.5004L9.72804 20.5102L9.33326 20.4653L9.0067 20.3457L8.6494 20.424L8.32026 20.6194L8.11219 20.699L7.87643 20.9568L7.58122 20.9666L7.39868 21.4784L7.21869 21.6751L7.06696 21.989L7.04243 22.1802L6.92452 22.309L6.83815 22.5682L6.50279 22.7704L6.29155 22.8369L5.93425 22.9151L5.73239 22.988L5.49664 23.2458L5.51848 23.3698L5.73328 23.6116L5.91059 23.7301L6.03517 23.9226L5.64657 23.8711L4.92792 23.3911L4.68849 23.3404L4.59512 23.2781L4.44599 23.2769L4.14712 22.9791L3.55666 22.9999L3.4633 22.9376L3.13054 22.8247L2.85986 22.644L2.83532 22.8352L2.74895 23.0943L2.86783 23.5889L3.02059 23.8986L3.1358 24.0849L3.25469 24.5795L3.40125 24.8959L3.37671 25.0871L3.46738 25.4646L4.12349 25.6842L4.39414 25.865L4.44739 26.1191L4.42285 26.3103L4.48223 26.5576L4.42383 26.9338L4.2194 27.3218L4.27264 27.5758L4.48751 27.8176L4.64027 28.1272L4.75548 28.3136L4.90824 28.6232L5.11685 28.8718L6.19015 29.5887L6.51353 29.6954L6.66276 29.6966L6.87754 29.9385L6.93705 30.1858L7.05225 30.3721L7.26084 30.6207L7.80216 30.9822L8.18761 31.021L8.43013 31.0844L8.80939 31.1301L9.14213 31.2429L9.38153 31.2935L9.77014 31.345L10.0408 31.5259L10.2741 31.5828L10.6689 31.6277L11.2593 31.6068L11.6818 31.4737L11.9457 31.3331L12.303 31.2548L12.6357 31.3677L12.8131 31.4862L13.295 31.6005L13.6522 31.5222L13.9193 31.3946L14.0655 31.3823L14.1834 31.2535L14.3388 31.2473L14.454 31.4336L14.9954 31.7952L15.3526 31.7169L16.4209 31.1738L16.6008 30.977L16.812 30.9105L17.1693 30.8323L17.3805 30.7658L17.6444 30.6251L17.8557 30.5585L18.1509 30.5487L18.5703 30.4026L18.9276 30.3243L19.1388 30.2578L19.434 30.248L19.3718 30.3159L19.9778 30.2944L20.3571 30.3401L20.6058 30.3969L20.8671 30.5714L22.1856 31.0367L22.425 31.0873L23.1929 31.1842L23.4974 31.1805L23.8767 31.2261L24.1254 31.283L24.514 31.3345L24.7194 31.5701L24.8968 31.6885L25.1054 31.9372L25.2827 32.0555L25.6155 32.1684L25.8488 32.2253L26.0355 32.3499L26.241 32.5855L26.7229 32.6998L27.1735 32.6839L27.7988 33.1016L28.0074 33.3502L28.0049 33.6653L27.8286 34.1704L28.1833 34.4073L28.3919 34.6559L28.6652 34.5215L28.9604 34.5117L29.7647 34.1092L30.0907 33.9008L30.3019 33.8341L30.6592 33.7559L30.8705 33.6894L31.1657 33.6796L31.4984 33.7924L31.8531 34.0293L32.2104 33.951L32.4775 33.8235L32.7789 33.8062L33.046 33.6786L33.3475 33.6613L33.4007 33.9154L33.5223 34.0948L33.9729 34.0789L34.0262 34.333L34.179 34.6426L34.2385 34.8899L34.4742 34.6321L34.5702 34.3794L34.75 34.1827L35.1073 34.1044L35.3406 34.1613L35.6113 34.3421L35.7329 34.5215L35.9754 34.585L36.0995 34.4494L35.8534 34.0774L35.8159 33.9538L36.0579 33.6893L36.2691 33.6227L36.449 33.426L36.6603 33.3595L36.8997 33.41L37.7854 33.3787L38.1181 33.4916L38.5067 33.5431L38.7774 33.724L39.1101 33.8368L39.9128 34.3729L40.2054 34.6776L40.3299 34.8702L40.5355 35.1057L40.6883 35.4154L40.8035 35.6017L41.012 35.8503L41.1402 36.3511L41.3488 36.5998L41.4082 36.8471L41.4092 37.4705L41.3228 37.7297L41.2049 37.8586L41.109 38.1114L41.3176 38.36L41.5882 38.5408L41.8276 38.5914L42.0983 38.7722L42.3316 38.8291L42.5464 39.0709L43.3491 39.6069L43.7064 39.5287L43.9176 39.462L44.1909 39.3277L44.7814 39.3068L44.8408 39.5541L44.956 39.7404L45.0739 39.6115L45.2047 39.7973L45.2642 40.0446L45.4728 40.2933L45.5321 40.5406L45.7095 40.659L45.9181 40.9076L46.0395 41.0871L46.3102 41.2679L46.5188 41.5166L46.8421 41.6234L46.898 41.5625L47.2333 41.3603L47.5285 41.3504L47.7711 41.4139L48.6578 42.006L49.3232 42.2319L49.5566 42.2888L50.2158 42.5215L50.5172 42.5044L50.753 42.2466L50.7579 41.6163L50.6892 41.3628L50.7852 41.11L51.3808 40.4589L51.7006 40.2572L52.1164 39.8028L52.3276 39.7362L52.5076 39.5395L52.9269 39.3934L53.2873 39.3281L53.4334 39.3158L53.7881 39.5527L53.9436 39.5466L54.1548 39.4799L54.2106 39.419L54.1793 39.2888L54.2039 39.0975L54.3218 38.9687L54.5392 38.8953L54.8903 38.8238L55.4316 39.1853L55.4911 39.4327L55.6126 39.6122L56.1539 39.9737L56.4805 40.0935L56.7444 39.9529L56.7783 39.7679L56.9582 39.5712L57.0448 39.3121L57.0787 39.1272L57.1653 38.8681L57.1678 38.553L57.037 38.3672L56.7757 38.1926L56.409 38.2647L56.0919 38.1511L56.0231 37.8975L56.028 37.2672L55.496 36.9119L54.8306 36.6861L54.622 36.4374L54.5626 36.1901L54.4474 36.0038L54.2326 35.762L53.9992 35.7051L53.6947 35.7088L53.5174 35.5902L53.8465 35.3948L53.9329 35.1357L53.8114 34.9562L53.367 34.9648L53.1276 34.9142L51.6063 33.8982L51.2736 33.7853L50.5277 33.8117L50.2944 33.7547L50.139 33.7596L49.8192 33.9613L49.5459 34.0957L49.3347 34.1623L49.0394 34.1721L48.8314 34.2517L48.1721 34.019L48.0569 33.8327L47.8422 33.5908L47.6956 33.2744L47.574 33.095L47.5146 32.8477L47.3994 32.6614L47.3307 32.4078L47.1873 32.1044L47.2736 31.8453L47.9288 31.4415L48.0467 31.3126L47.692 31.0757L47.4586 31.0188L46.6168 31.2979L46.3748 31.5625L46.2351 31.5674L45.8157 31.7135L45.6665 31.7123L45.4892 31.5939L45.2779 31.6604L45.0359 31.9249L44.7407 31.9347L44.3834 32.013L43.9948 31.9615L43.3356 31.7287L43.0962 31.6782L42.8255 31.4974L42.5083 31.3839L42.2595 31.3272L41.9268 31.2143L41.6935 31.1574L41.4228 30.9766L41.0994 30.8698L40.6515 30.5706L40.5295 30.063L40.3241 29.8274L40.2021 29.3198L40.0806 29.1402L40.0213 28.8929L39.8747 28.5765L39.8152 28.3292L39.6844 28.1435L39.6869 27.8283L39.7208 27.6433L39.7147 27.322L39.7487 27.1371L39.7512 26.8219L39.8375 26.5628L39.7781 26.3155L39.7806 26.0004L39.8051 25.8092L39.8076 25.494L39.8321 25.3029L39.8346 24.9877L39.8591 24.7965L39.864 24.1663L39.8886 23.975L39.891 23.6599L39.925 23.4749L39.9189 23.1536L39.9529 22.9686L39.9553 22.6536L39.8958 22.4062L39.9822 22.1471L39.9228 21.8998L40.0092 21.6407L40.0116 21.3255L39.9522 21.0782L40.1193 20.5669L40.1594 20.3752L40.1557 20.0668L40.2421 19.8077L40.2666 19.6165L40.3626 19.3637L40.365 19.0486L40.4514 18.7895L40.4759 18.5982L40.9307 17.3285L40.9553 17.1373L41.1378 16.6255L41.1317 16.3041L41.2214 16.0581L41.2238 15.743L41.4037 15.5463L41.4901 15.2872L41.6699 15.0904L41.8462 14.5854L42.0261 14.3886L42.1125 14.1295L42.2924 13.9327L42.3822 13.6868L42.5308 13.3599L42.6172 13.1008L43.1508 12.5174L43.2468 12.2647L43.4266 12.0679L43.5692 11.7479L43.8049 11.4901L44.2243 11.344L44.5289 11.3403L44.5911 11.2725L44.9083 11.386L45.3902 11.5002L45.688 11.1747L45.8961 11.095L46.1044 11.1471L46.1105 11.1421L46.1129 11.1442Z" fill="#0E1A23" stroke="#132D42" stroke-width="2"/>
</svg>
