<svg width="561" height="710" viewBox="0 0 561 710" fill="none" xmlns="http://www.w3.org/2000/svg">
<path d="M177.676 544.273L174.362 543.386V539.811L171.298 538.788L168.104 534.572L163.633 532.913L162.676 528.25L160.568 526.143L161.27 523.908L158.14 520.778L155.458 518.096L153.797 513.498L151.243 513.242V510.304L148.497 507.303L146.262 505.068H143.004V508.197L140.131 511.071L135.661 510.432V507.494L133.745 505.833V502.129L129.784 501.618L125.187 499.446L120.844 499.958L116.502 499.318L114.075 502.256L112.862 506.279L109.988 509.152L111.138 513.112L109.606 517.711L105.774 521.542V528.695L100.41 532.398V536.614L98.112 533.421V529.844L95.4288 527.162L92.8743 528.312L92.2351 531.631L85.4651 534.186H82.2727L80.9955 538.017L78.9516 541.082L74.5445 541.401L69.6284 536.486L69.1168 526.268L69.756 520.139V514.391L70.5228 509.282V504.301L66.9463 502.768L64.392 501.874L64.008 499.447L62.8264 496.669L60.4966 494.338V491.593L62.0927 489.996L62.5393 486.229L60.3052 483.994H57.3667L54.1731 482.462V479.524L55.4503 478.246L54.0443 476.84L52.8947 472.371L50.3403 467.772L47.2755 465.601L43.8267 466.623L40.5055 466.878V462.919L43.2513 462.152V459.534L40.3779 456.66L40.2478 454.232L37.2469 454.041L35.0126 456.276L32.2031 454.999L28.4991 456.404L26.7103 454.234H24.7951L23.1339 455.894H19.8126L17.641 454.872V450.785L18.9182 449.508V446.826L17.8962 443.76L20.3242 439.928L21.7291 435.969L17.5134 431.754L16.3638 426.134L12.7874 424.218V420.641L14.1934 419.364L12.7874 417.958V414.637L8.95701 413.103L7.8062 414.253L6.65658 410.804L8.57301 408.887L10.6158 405.566L13.6818 404.672L12.531 396.753L11.6366 391.645V388.963L8.0602 382.449L7.67739 375.679L4.10221 373.252L2.56859 369.676L1.46436 366.924V365.237L5.7585 363.55L10.206 357.262L13.2732 356.342L17.414 357.569L18.6409 354.808V351.434L16.3405 349.134L17.414 345.146L20.4813 344.073L20.3279 336.712L23.7019 334.411L27.6133 330.5L28.4574 327.662H30.1444L29.8376 323.521H26.617L23.7031 318V312.939L21.096 310.332L15.5749 306.345V304.198L11.4342 302.664L9.98269 299.614L10.6858 295.504L8.946 293.764L7.13142 291.024L6.2051 288.655L7.61112 287.174L8.01849 285.211L6.39037 283.916L5.85914 280.325L9.33495 281.143L13.4254 282.778L14.2425 280.325L16.7994 276.746L18.9464 278.893V282.982L21.4002 286.458H24.2626L21.4002 283.799L23.3424 281.852L27.125 278.07L32.2374 275.411L40.0074 273.979L46.1419 272.139L47.6767 274.491L46.2449 275.922L49.6189 279.296H55.957L56.1619 277.661L56.7754 275.412L59.2292 279.298L63.5233 277.662L67.8175 273.982C67.8175 273.982 72.3165 273.163 73.3385 273.163C74.3605 273.163 73.3385 269.482 73.3385 269.482L72.725 265.393L69.6578 260.691L70.4761 255.988L71.0896 253.534L73.5434 255.988L76.099 254.046L78.2461 256.193L81.5182 258.442L82.3353 255.988L83.972 255.579L85.6075 257.42L87.2429 256.193C87.2429 256.193 87.0392 252.41 88.5729 252.41C90.1065 252.41 90.5151 250.468 90.5151 250.468L95.0141 253.944L96.4447 252.512L101.352 254.147L99.7168 259.157H102.068L104.419 261.509V265.394L108.305 262.941L110.35 264.986V269.485L107.692 270.303L106.056 271.939L108.919 274.802C108.919 274.802 111.167 273.779 111.167 272.757C111.167 271.735 113.008 274.597 113.008 274.597V277.87L117.2 277.766L121.187 281.754L124.255 283.799L128.549 284.617L130.389 282.777L135.092 285.231L135.502 281.345L133.456 274.597L132.23 271.53V268.668L129.571 266.009V262.328L134.683 262.942L137.546 265.804L142.045 264.577H147.157L146.134 259.261L148.998 253.945L154.314 252.718L158.199 252.513L162.697 253.74V250.673L157.893 248.526L159.63 246.787L161.88 244.334L165.764 244.538L168.832 241.471L167.401 240.653L164.334 237.586L160.857 235.745V231.246L159.426 230.019L157.381 235.335L154.927 233.7V229.406L159.426 225.317L158.813 222.454L154.519 219.796L157.176 217.137H161.062L166.788 214.275L168.423 209.572L175.989 206.71L181.919 204.051C181.919 204.051 182.737 204.869 182.737 206.096C182.737 207.323 178.852 208.755 178.852 208.755L177.42 214.276L180.897 212.64L183.964 209.573L187.848 210.8L186.826 218.775L190.302 215.503V211.617L189.075 205.074L189.894 202.212L191.734 197.099L196.028 195.054L202.163 192.395L205.843 195.054C205.843 195.054 204.105 197.406 202.776 198.735C201.447 200.063 204.208 200.984 204.208 200.984H208.706L211.569 197.711C211.569 197.711 214.84 201.187 215.454 201.801C216.067 202.414 214.84 197.098 214.84 197.098L220.361 194.031L224.247 196.076L228.541 195.872L232.427 191.987L236.516 186.874V180.945L241.628 173.378L245.922 169.084L249.807 164.38L256.555 163.358L262.179 163.052L264.939 165.812L270.664 171.538L275.777 169.289L279.457 166.324H283.445L281.502 164.382V161.518L285.387 157.633V150.884L287.227 147.409H290.294L292.953 144.75V140.661L298.066 136.98L299.292 132.072L297.247 130.027L298.066 127.573L295.203 123.484L297.452 119.395L299.599 117.248L303.485 121.133L300.519 124.099L303.587 127.166H308.289L311.561 125.939L316.06 123.894L320.15 122.872L321.172 119.6L319.945 116.328L317.696 115.919L310.743 112.852L305.632 113.67L304.405 110.808H300.314V108.559L301.338 104.673L305.018 102.833L305.427 98.5389L308.699 96.6985H311.561L310.335 93.2227L311.561 89.542L315.037 84.4296L316.673 78.5L322.91 72.4673L329.862 65.5145L333.032 62.3442L339.167 59.6855L343.561 57.1299L347.652 53.0406L351.844 48.8483L356.957 46.8031L360.637 41.4869L367.589 39.4429L371.27 35.5573L375.769 33.5121L378.631 31.8766L381.903 35.1488L386.606 33.717L390.798 36.8861L393.559 34.1255L398.466 31.4668V29.0131L393.559 30.0351L387.833 29.6265L384.152 28.6045L385.379 24.9238L389.265 22.2651L385.992 21.4468V19.6064L388.243 19.8113L388.651 16.1306L390.696 13.2683L393.559 10.4059L398.466 8.56558H399.898L403.579 3.4531C403.579 3.4531 407.055 2.43109 408.281 1.2042C409.508 -0.0227019 408.281 4.68 408.281 4.68L410.94 6.9289L412.984 8.97414L410.735 13.6768C410.735 13.6768 413.802 13.6768 415.029 12.4499C416.256 11.223 415.029 14.9037 415.029 14.9037V19.1979L410.327 22.2651L414.007 22.8786L416.256 20.6297L421.062 22.47V20.3229L424.845 24.1055L427.503 28.1947L429.752 27.5813L432.001 24.7189V27.3776L433.433 30.6497H429.139V32.2852L432.615 33.3072L430.774 38.6233L426.071 39.0319L421.777 43.7346L419.528 48.6422L415.234 50.074L412.167 48.8471H408.281L404.806 53.9596L406.339 57.0268V62.2411L402.965 65.6151L400.307 63.5698L397.648 65.6151H393.764L391.513 63.7747L389.469 62.5478L389.163 64.49L390.696 66.0236L388.856 66.842L387.629 68.0689L391.207 68.6823V71.4428L393.967 74.2034L398.466 72.9765H401.534L401.737 76.862L403.578 75.0217L406.748 78.192L410.122 81.566L411.757 87.4956L412.576 92.1983L409.303 97.5144H406.236L401.942 99.3548L400.511 102.627L403.987 101.196H406.236L402.965 105.082L405.009 107.125L407.668 106.103V102.217L410.122 100.377L414.518 100.275L417.075 97.7193L418.301 95.6741L421.369 95.879L423.823 95.4704L428.32 95.2655V98.1279H432.001L433.024 96.1857H436.602L438.749 94.0386L441.408 93.6301L443.657 95.4704L446.929 93.0166L448.462 96.5955L451.428 99.5609V103.855L447.337 105.49L444.68 111.216H440.386L439.159 113.057L443.963 116.226L442.43 117.759L445.907 123.076L447.337 129.619V136.98L448.564 142.706L450.609 147.614L451.633 154.157L453.677 160.496L457.562 163.972V169.901L459.607 178.081L463.083 181.967L465.332 184.217L461.856 187.284L458.176 185.444L453.063 187.079L450.406 193.214L446.112 199.348L448.36 201.597L446.725 207.322V210.389L450.201 215.705V218.977L446.315 217.137L443.453 214.275L440.999 214.479L443.248 220.409V224.295L447.031 226.033L443.248 229.816H440.794V235.132L438.545 237.381L441.613 242.493L444.066 244.947L446.929 247.809L450.814 251.695L451.631 257.421L452.245 261.92L457.869 264.884L461.243 268.258H466.968L465.434 264.782V263.044L467.377 261.102L468.809 258.034L474.125 263.35L475.147 268.054L480.464 271.735L485.729 272.91L487.825 270.815H491.199L495.186 274.802L493.551 278.688L489.462 279.915L490.688 284.822L494.983 291.979L498.765 292.899L501.73 295.864L508.682 295.046L512.773 298.318L514.203 301.999L511.749 303.634L508.274 305.883L506.228 310.382L507.66 318.562L511.749 324.9L515.328 326.229L517.067 327.967L522.996 329.399V331.853L518.497 332.466V336.147L516.862 339.828L518.907 347.189L522.382 348.621L527.699 353.937L531.585 357.618L532.403 364.161L534.447 372.749L535.47 378.27V382.361L533.22 379.293H527.29L523.508 377.35L520.543 374.386H516.453L512.773 370.705L505.615 367.433L498.867 364.571L491.097 360.48L488.848 357.413L485.167 354.959L481.077 354.142L472.285 351.483L466.559 348.416L461.038 344.735C460.118 343.815 458.379 339.828 458.379 339.828L452.447 333.909L448.358 329.615L448.357 325.321L445.494 322.457L444.881 317.754L441.405 312.846L437.621 312.029V310.29L439.36 308.552L440.792 305.485L438.85 302.111L440.69 300.27L442.224 298.737L440.178 292.602L439.156 286.059L436.702 278.493L432.817 273.38L431.181 266.632L429.341 260.293L427.296 255.181L424.842 247.614L422.388 245.569L422.183 241.48L423.615 236.572V233.71V230.234L421.161 227.78L418.503 222.668H415.845L413.288 221.748L410.938 219.396L408.074 215.715L403.78 213.056V208.354L407.666 204.674L406.336 203.344L403.167 206.513L398.669 208.967V213.261L397.442 216.533L399.894 218.782L403.473 222.361L406.847 225.735H410.938L410.528 228.394L408.688 228.189L406.747 230.945L409.303 233.496V240.039L411.349 244.947L411.757 252.717L410.327 257.421L408.69 253.332L405.009 251.491L405.01 256.604L401.943 253.536L399.898 251.491L398.261 248.015L392.537 242.699L394.172 247.198L392.537 252.106H387.016V255.378L385.175 262.126L382.925 264.785L383.13 273.782L386.811 276.235L386.197 281.961L389.878 287.687V293.822L391.003 301.898L394.377 305.272V308.953L397.239 311.817L399.898 311.407L402.249 309.26L403.987 307.522H407.055L406.85 311.407L403.579 312.43V317.951L397.444 318.973L398.875 326.13L398.261 329.197L394.377 330.831V335.125L392.945 339.01C392.945 339.01 388.139 340.135 389.06 339.214C389.98 338.294 387.219 337.374 387.219 337.374V334.715L388.038 332.058L391.412 330.933L389.878 329.399L386.197 330.831L382.312 331.444V333.285L376.587 335.942L373.723 339.419L370.453 340.236L367.794 342.895L366.772 345.962L367.793 349.848L370.043 352.097L367.385 354.959L363.091 353.324L364.42 357.72L361.251 360.89L358.387 363.547H355.933L353.48 365.798L355.116 368.455L356.343 369.682L352.866 371.932H348.163L343.563 376.532L340.597 379.497L337.325 385.018L333.849 388.495L330.373 395.447L329.76 402.195L333.032 408.739L329.965 411.806L328.943 418.349L330.782 423.052L333.646 425.916L331.192 430.005V435.526V442.887L329.965 448V454.951L332.01 457.201V462.109V467.63L330.17 474.582V480.308L327.103 485.42V490.531L325.466 495.03L327.306 499.171H330.425L332.827 496.769H336.2L338.86 494.109L341.824 491.145L343.869 493.19L346.323 494.417V497.076L348.267 500.653L350.72 503.107L352.867 500.96V497.689L350.004 496.462V493.395L352.254 490.941V492.985L354.708 494.825L355.935 494.417L357.162 495.644V499.324V501.983L361.251 500.347V498.303L363.5 495.235L364.931 494.008L367.18 495.644L367.692 492.27L365.75 490.328L363.909 486.851L361.659 482.761L365.34 480.717L367.59 478.467L372.088 477.445H377.405L381.801 477.957L383.743 479.899C383.743 479.899 388.447 479.081 389.469 479.081C390.491 479.081 393.354 477.853 393.354 477.853L395.911 480.409L393.967 482.353L392.537 483.783L391.31 486.034H394.786H398.466L399.285 488.691L402.352 491.758L406.136 491.248L408.078 493.19L410.122 497.076L410.735 504.846L413.394 513.025L417.585 519.057L422.799 524.271L424.845 526.318L425.867 529.792L429.957 533.883L432.819 538.79L433.843 541.654L437.625 547.481L440.794 550.649V559.238L439.567 566.599L441.817 573.96L441.613 581.524L443.861 587.455L445.497 593.999L446.724 599.928L447.951 607.902V615.674L446.724 619.764V627.739V637.554L445.497 644.916L446.724 652.481L446.315 662.296V667L442.226 673.748L439.567 679.472L436.5 685.199H433.841L428.73 687.244L424.436 689.697L421.471 688.47V685.71L419.937 684.176L418.402 687.653V691.435L416.665 689.697L414.007 687.04V689.084L413.189 694.195L414.007 697.672L412.882 701.66L411.144 703.397V705.443V708.714L407.259 708.511L405.623 706.874L407.055 702.17L409.508 697.262V693.174L407.361 688.367L402.965 683.973L400.715 681.722L398.875 677.019L394.99 673.134L391.31 671.907L391.207 667.92L393.764 665.363L396.012 663.115V659.025L398.875 656.161L402.147 654.527L405.522 655.651L408.486 652.687L410.327 649.006L407.055 643.892L408.69 639.598L406.646 635.1L406.236 630.396L403.374 626.512L404.192 623.241L401.941 619.356L400.918 614.859L396.828 610.565L399.896 607.498V602.997L397.34 600.443L394.377 597.474L393.559 594.816H390.083L385.175 597.474L383.948 601.564L380.676 606.882L376.996 611.583L378.632 616.697L374.338 620.171L370.044 622.625L366.363 623.852L365.34 627.533H361.456L357.57 625.285L354.708 624.262V619.558L351.436 616.697L348.781 614.038L344.381 612.913L342.029 615.264L337.326 614.037L333.441 613.016L327.511 613.833H321.99L319.741 616.083L313.607 618.331L307.472 617.104L304.917 612.096L301.951 609.129C301.951 609.129 298.475 607.085 298.475 606.266C298.475 605.446 294.59 602.381 294.59 602.381L289.682 601.564L287.637 596.657L282.933 592.976L279.662 589.705L275.163 588.478L273.528 584.184L269.437 582.344L266.983 579.89L258.805 579.07H254.511L249.603 581.73L243.469 580.707L238.765 582.344H233.653L226.699 587.455L223.429 590.726L220.466 585.617L219.137 582.957H215.66L214.638 578.562L212.899 575.903L215.966 574.062V572.632H214.331L211.571 569.667L209.322 569.361L209.832 564.146L208.503 561.793L207.071 557.806L203.801 556.172L201.449 559.442L198.995 558.522L198.79 555.045L197.154 553.411L194.752 552.745L192.247 555.251L191.02 558.319L186.828 557.192L185.499 554.638L187.953 551.571L186.521 549.218L183.76 550.138L180.183 549.218L177.717 546.728L177.676 544.273ZM392.923 459.626L391.507 459.98L390.447 456.973V454.318L395.047 455.557L397.346 456.619L398.585 459.45L401.062 461.927L405.485 462.812L406.547 465.644L411.5 468.829H414.153L416.276 471.836L418.045 476.613L420.787 479.354L426.006 484.751L429.367 485.636L433.968 487.405L438.391 491.298L444.406 494.659L448.298 498.02L453.43 500.674L457.852 503.328L460.683 505.627L465.636 507.574L464.93 509.875L463.162 511.643L459.8 512.704H457.146L457.854 516.419L457.146 519.073V521.195L460.153 525.796C460.153 525.796 462.986 528.979 462.454 529.51C461.921 530.041 462.632 534.995 462.632 534.995L464.932 537.296L468.471 540.835L471.478 542.781H476.077L478.731 545.434H481.738L483.331 548.795L487.224 548.973L489.611 546.585L493.769 548.973L496.247 552.158C496.247 552.158 497.133 554.281 496.247 554.281C495.362 554.281 490.585 551.98 490.585 551.98L488.551 554.015H484.04L482.625 557.643L483.51 561.18L486.34 564.01L488.463 568.611L485.632 570.912L483.332 568.081L480.325 565.071L475.017 560.119V556.757L471.479 553.22L468.118 549.858L465.818 546.851L462.986 541.365L459.448 538.004L455.733 535.881L452.195 534.82L449.185 528.451L442.639 519.428L437.332 514.12L432.91 509.698L429.016 504.39L426.539 500.322L419.817 497.314L414.509 495.014L411.324 494.66L407.078 488.821V486.168L402.478 481.568L400.001 476.968L395.047 475.375L396.286 471.837V469.183L400.354 470.421L401.062 466.883L398.675 464.495V463.168L396.33 460.823L392.923 459.626ZM542.422 551.978L543.13 555.692L543.483 559.231L544.9 559.761V556.931L545.961 554.631V551.447L542.422 551.978ZM554.629 554.102V555.692L556.93 556.931V554.276L554.629 554.102ZM547.376 539.769L549.5 540.654L550.208 537.823L549.145 532.164L551.091 530.218L550.738 526.146L547.729 525.262L546.845 529.863L547.996 531.01L547.023 534.462L547.376 539.769ZM552.684 516.415L551.799 517.3L552.507 520.309L553.923 518.186L552.684 516.415ZM554.807 505.622L555.691 501.023L554.454 498.193L555.161 495.185L557.549 492.795L558.168 496.07L557.637 499.431L558.346 503.323L557.107 506.153L554.807 505.622ZM557.109 466.168V470.062V473.246H559.586L558.878 470.238V468.291V465.992L557.109 466.168ZM454.138 237.764V241.655L453.785 245.194L455.907 246.609L457.323 248.379L457.5 251.562L460.331 252.624L459.623 249.44L458.384 246.963L459.623 242.893V237.94L456.26 236.524L454.138 237.764ZM522.961 256.34L520.484 257.225L521.723 259.878H525.969H530.215L532.869 257.225L529.508 256.163L526.145 257.579L522.961 256.34ZM535.171 386.731L534.11 389.916L532.429 391.596L534.375 393.543L535.524 395.93L535.171 399.115L534.993 403.184L536.85 405.041L538.886 403.892V399.645L540.743 397.789L539.239 394.162L536.763 391.684L536.939 388.5L535.171 386.731ZM542.778 414.33V416.984L544.547 417.868L545.786 416.277L542.778 414.33ZM538.004 247.137L535.703 248.729L536.941 249.967L538.622 248.287L540.303 246.606L538.004 247.137ZM303.859 34.3267L302.235 33.7182L300.815 35.2052L297.704 36.8296L295.168 39.3656L295.403 43.7285L294.321 44.8118L294.862 48.3281L296.891 51.3046L298.988 56.1753L302.235 56.8514L304.433 54.6528L306.091 51.6432L304.265 49.6814L306.97 45.7577L306.497 41.4967V36.4235L303.859 34.3267ZM343.739 477.85L341.97 479.796V482.272V484.926L344.977 483.688L346.571 485.28L348.34 483.512L349.047 479.971L347.101 477.142L343.739 477.85ZM141.233 163.063L140.861 161.578L143.645 162.877L145.036 161.485L146.984 159.537L149.861 156.661L151.624 158.794H152.552L154.871 156.475L157.005 153.97L161.087 152.115L164.056 154.342L162.387 158.981V161.578L160.438 163.526L157.376 164.919L154.036 166.218H150.697L148.191 168.724L144.202 167.331L142.16 164.362L141.233 163.063ZM134.366 166.96H128.427L126.479 168.909L123.417 171.042L121.19 168.816L115.809 170.485L116.181 173.826L117.573 175.219L119.613 177.259L121.006 178.65L118.964 180.321L116.181 177.909L114.696 179.393L112.654 177.351L108.015 178.28L105.974 177.167L105.046 179.579L106.531 181.062L103.747 182.548V186.073L105.975 188.3L105.417 190.898H107.458L110.057 193.497L109.314 196.466L112.654 198.136L117.108 198.321L118.964 200.176H122.304L126.201 199.063V196.094L123.788 193.868L125.088 192.568L127.036 194.517L130.469 188.301L133.717 185.054L135.109 186.445L138.078 183.476L139.004 180.692L135.665 179.579L133.438 181.806L130.655 179.764L127.315 177.723L123.974 175.311L125.088 172.899L126.851 171.136L128.242 175.867L130.376 178.001L133.994 178.65L136.222 177.723H138.078L139.932 175.868L139.004 171.97H136.037L136.779 168.63V166.218L134.366 166.96ZM137.521 199.62L135.85 201.105L137.149 204.816L139.284 206.951L141.047 203.517V200.735L139.748 199.435L137.521 199.62ZM145.129 202.96L142.994 205.095L144.202 207.971L146.243 210.012L144.943 212.981L146.058 214.095L147.728 210.569L151.995 209.641L155.707 208.156L160.717 205.187L158.12 200.363H154.593L149.583 198.692L147.263 200.827L145.129 202.96ZM103.375 194.98L101.706 193.311L98.7365 193.125L100.686 195.074L101.891 199.434H104.303V197.022L103.375 194.98ZM10.5888 267.167L7.15718 270.6V272.919H10.0318L10.9606 275.146L13.3726 274.033L16.1577 271.249V266.796H12.6316L10.5888 267.167ZM131.573 136.526L130.46 138.568L131.666 139.774L133.059 138.568L131.573 136.526ZM121.181 217.62L117.655 216.878L116.542 217.806L118.584 218.733L121.181 220.775L122.294 219.29L121.181 217.62Z" fill="#0E1A23" stroke="#132D42" stroke-width="2"/>
</svg>
