<svg width="78" height="121" viewBox="0 0 78 121" fill="none" xmlns="http://www.w3.org/2000/svg">
<path d="M26.6156 1.32648L25.082 3.09014V5.54394L23.395 7.99773L24.9287 9.30131L26.1556 11.7551L24.4686 14.4389L26.4623 16.4327L23.0883 19.0398L20.9412 19.6533L21.7081 22.5671L20.6345 24.7909L17.5673 28.6249H13.5799L11.8162 26.0178L10.666 23.5257H8.63393L6.60188 25.5577L3.688 26.0178L1.19586 28.4716L2.23106 32.574L5.2983 37.2899L6.7169 42.1975L11.2411 45.2647L14.3083 46.6833L16.1487 51.3992L19.5993 54.2364L18.7942 58.3389L21.6697 60.9844L22.4749 67.5406L25.3504 70.4161L29.8362 71.0296L32.4051 73.5601L33.0952 75.7071L36.5842 76.1289L37.6194 79.8096L40.6866 83.0685L39.4597 86.5575L37.6194 89.6247L40.4566 93.3054L42.1052 97.5996V100.245L45.3642 102.507L45.7859 107.415L48.048 114.163L48.6615 118.035L53.1473 119.07L57.8632 117.422L61.1221 118.879L66.0297 116.616L65.608 110.06L66.4515 104.769L65.2246 97.7913V92.0785L69.7104 84.7172L71.7425 82.8768V81.4582L74.1196 79.0811L75.0398 75.5154L76.0366 71.643L74.8097 67.7323L72.6627 65.5852V62.2113L74.7714 60.1409L75.0398 56.5369L74.0429 53.9297L71.8192 53.1629L70.4389 51.0542L67.6784 49.0221V44.3446L65.9147 41.7757L65.3779 38.6702L63.1542 36.4464V33.9926L61.5822 31.9222L59.4735 29.8135L57.9399 26.938L59.3968 24.1774L58.0549 20.4967L56.0995 18.5797L55.4861 16.0109L53.5691 13.7488L53.1473 10.7966L50.8469 9.83808L47.2045 10.4899L45.5559 8.84122L44.6357 6.15739L42.9487 6.77083H40.8783L39.9582 4.087L37.6577 2.93678L36.2008 1.36482H33.9387L32.1367 3.16682L29.2995 3.55023L28.2259 1.86324L26.6156 1.32648Z" fill="#0E1A23" stroke="#132D42" stroke-width="2"/>
</svg>
