<svg width="158" height="130" viewBox="0 0 158 130" fill="none" xmlns="http://www.w3.org/2000/svg">
<path d="M115.542 1.3595L112.666 3.92831H106.838L105.343 8.8359L100.551 13.5901H95.2979L93.4576 15.4688H90.582L89.1634 13.4751H85.6361V10.868L84.0641 9.29599L82.4155 11.328L80.9969 14.817L73.4055 15.8522L73.6355 19.1112L70.76 18.6894L67.8844 21.565L68.7279 26.0508L65.6607 27.8912L61.1365 32.4153L56.2289 27.086L52.97 23.597L49.481 25.054L45.6086 23.4053L41.1227 25.4374L38.0555 28.7346L40.5093 29.5398L42.7331 31.8019L46.222 32.607L48.6758 34.4474L47.8707 38.1281L44.3817 36.7095L39.6658 36.096L36.8286 34.8691L34.9883 36.7095L32.5345 34.4474L30.2724 32.7987L27.8186 32.4153L27.0134 35.0608L28.6237 38.1281L28.0103 43.2274L24.943 42.2305H22.4892L17.8117 42.4222L14.3227 43.8408L12.9041 46.9081L9.83686 45.9112L6.53958 41.8088L4.08578 42.2305L1.86203 44.4543L2.85889 48.5567L1.63199 52.2374L3.28063 55.4963L5.73443 57.7584L5.31268 63.8929L7.38307 66.9602L8.99337 70.4492L9.83686 77.3888L9.22342 86.7822L10.8337 91.6898L13.5176 91.3064L15.5496 94.1436L17.1982 96.214L19.422 96.5974L21.9141 94.1436L24.828 93.6835L26.8601 91.6515H28.8921L30.0423 94.1436L31.806 96.7508H35.7934L38.8607 92.9167L39.9342 90.693L39.1674 87.7791L41.3144 87.1656L44.6884 84.5585L42.6947 82.5648L44.3817 79.8809L43.1548 77.4271L41.6212 76.1236L43.3082 73.6698V71.216L44.8418 69.4523L46.4521 69.9891L47.5256 71.6761L50.3628 71.2927L52.1648 69.4906H54.4269L55.8839 71.0626L58.1843 72.2128L59.1045 74.8967H61.1749L62.8618 74.2832L63.782 76.9671L65.4307 78.6157L69.073 77.9639L71.3734 78.9224L71.7952 81.8746L73.7122 84.1367L74.3256 86.7056L76.281 88.6226L77.6229 92.3033L76.166 95.0638L77.6996 97.9393L79.8083 100.048L81.3803 102.118V104.572L83.6041 106.796L84.1408 109.902L85.9045 112.47V117.148L88.665 119.18L90.0453 121.289L92.269 122.056L93.2659 124.663L92.9975 128.267L95.4896 128.919L99.7838 127.692H103.695L107.145 123.589L110.021 122.362V119.525L113.701 120.139L115.12 121.557L118.187 122.401C118.187 122.401 117.779 123.934 119.721 123.934C121.663 123.934 124.13 123.628 124.13 123.628H125.97H128.232H131.07L134.559 123.206L136.591 121.174L134.06 118.605L132.297 115.039L131.913 111.359L134.98 111.742L137.012 114.004L139.16 111.857V106.221L138.048 99.2812L139.044 93.9519L136.591 91.4981L132.718 87.8174L130.073 86.2071L132.718 83.5233L133.945 78.2323L130.993 75.2417L129.651 71.2543L132.91 68.9922L135.594 66.3467L139.275 66.5384L142.725 65.1198V61.4391L145.409 58.7936L148.553 55.6114H152.54L155.224 53.656L156.643 50.3971L156.489 46.2946L153.997 43.8025L153.422 40.7352H150.508L148.591 38.8182L147.748 34.6774L144.796 33.6039L143.3 35.0992L140.616 32.5687L144.297 29.003L143.76 23.2903L138.891 18.5744L134.75 18.7278V16.3123L132.067 14.8937L127.504 14.3186L126.2 9.48769L126.507 5.92202H122.366L119.222 4.1967L118.532 1.93461L115.542 1.3595Z" fill="#0E1A23" stroke="#132D42" stroke-width="2"/>
</svg>
