<svg width="534" height="352" viewBox="0 0 534 352" fill="none" xmlns="http://www.w3.org/2000/svg">
<path d="M226.056 141.376L226.568 137.593L232.804 131.357H243.233L246.504 125.631V114.589L253.048 111.317L261.636 107.022L267.566 109.273H271.043L273.905 112.135L277.417 109.687L276.563 113.975L280.039 113.565L284.946 113.77V117.042L285.969 120.723L283.719 119.291L281.368 116.939L279.221 119.087L280.243 122.972V126.858L283.72 128.698L286.378 131.355V135.65L289.343 137.081V141.887L292.717 145.261L294.353 150.986V156.917L293.331 162.028L294.558 164.891L294.659 171.128L298.238 174.707L298.033 179.204L297.215 186.566L293.637 192.803L288.218 198.221H282.492L276.154 199.448L270.633 197.404L264.6 194.03L260.818 190.247V184.725L256.932 180.841L255.092 176.547L253.66 172.457L251.003 167.959L249.571 160.392L246.709 159.166L247.629 154.565L249.98 152.214L247.117 149.35L245.788 152.929L243.845 154.871L244.663 159.37L244.765 164.585L242.516 166.834L245.482 169.799L244.663 174.298L241.801 180.636L236.792 182.17L232.804 186.157L231.269 193.417L227.487 197.199L230.554 206.811L227.59 212.025L231.781 216.218L236.28 220.715L241.393 217.035L242.415 211.923L239.756 209.265L240.166 204.766V201.29L243.641 197.609H247.117L248.344 206.811L249.469 212.844L253.048 216.421L255.297 221.125L261.125 222.862L262.863 221.125L261.431 217.648L264.907 214.786L265.112 207.629L271.451 208.651L277.381 206.402L282.289 209.06L287.81 207.323H291.592L293.944 209.673L297.42 214.991L294.558 217.853V222.352L297.113 219.182L300.692 215.605L305.6 214.582L309.689 208.651V203.54L311.324 200.063L316.641 197.406V194.135L321.753 191.067V185.955L320.935 181.047H324.411L325.536 183.603L330.136 188.204L333.612 193.521V200.676L332.385 204.358L330.545 206.197L327.478 203.13L323.184 202.109L316.641 204.357V209.674L318.276 214.582V218.673L322.979 219.899L327.478 221.943L332.59 219.49V215.809L337.906 214.582L343.019 217.036L342.201 213.765L350.175 215.196L354.47 214.378L362.239 215.399H366.738L368.987 219.49H371.033V215.809L377.576 213.765H381.054L382.486 219.08H378.6L377.373 222.761L374.306 223.784L379.009 228.078H382.281L388.415 225.42L394.243 226.544L400.582 232.884L402.729 230.737H407.024L412.443 228.998L414.59 231.145L413.977 234.009L410.704 236.258V239.733L414.59 243.006L414.897 239.223L416.635 237.485L420.724 238.507V235.236L424.61 234.622L425.428 229.715L424.815 223.784L428.496 221.943L431.665 221.023L435.447 224.807L437.083 223.17L441.275 228.385L446.081 233.19L449.966 237.076L450.917 239.017L449.25 241.471L447.256 243.464L446.029 244.691L448.023 246.583L448.431 248.117L449.965 248.628V251.798V255.58H448.022L447.101 257.829L445.466 258.647L444.853 262.43L448.942 264.474V267.133L445.159 268.666L448.328 271.835L443.421 274.289L439.74 277.97H435.856L434.424 282.469H427.471L420.928 283.901L414.385 287.581V292.08L409.068 291.875L405.132 292.489L402.985 294.943L399.151 296.936L395.317 300.77L391.789 301.23V298.01L389.182 297.09L386.039 300.233L381.821 304.451L379.98 307.978L380.747 312.426L375.84 315.493L375.38 319.174L371.239 321.781L368.478 326.995L369.245 330.523L367.558 333.743V336.504L362.497 341.565L361.808 345.168L359.89 347.086L358.816 350L351.762 348.926L346.547 346.932L341.947 344.479L337.192 341.258H335.045L333.818 343.865L331.749 344.555L330.291 343.098L328.221 342.408L326.15 344.479L322.47 343.098L319.249 344.785L316.335 341.871L311.888 339.878L309.28 340.798L307.133 338.191L307.593 335.584L306.52 333.897L303.913 332.976L301.919 334.97L300.463 333.513L299.005 334.97L294.864 332.67L292.948 336.426L295.018 338.497V340.951L291.894 342.184H288.577L286.693 344.069L283.644 344.427L282.658 342.184L280.954 340.481L277.726 343.53L275.395 341.199L271.628 339.405L268.041 340.302L266.606 344.427L264.274 347.297L262.84 345.863L264.095 342.993L263.198 339.764V336.715L261.047 334.563V331.514L263.737 328.823V326.133L267.682 325.237V321.112L270.194 318.601L269.815 315.493L267.974 314.573L268.691 312.324L266.697 310.33L265.93 309.564L264.805 307.723L263.272 307.212L261.073 309.102L256.579 313.598L253.799 316.377L249.926 314.655L247.774 316.628L252.257 321.291L249.388 322.726V326.492L248.042 327.837L243.289 323.623L240.779 327.568L236.295 326.492L234.413 328.376L231.633 324.34L227.508 322.008L224.099 320.395L222.665 316.449L218.629 312.414L213.338 311.427L210.649 305.688L206.524 307.661L202.04 305.688L197.018 306.943L192.535 308.916L187.691 304.073V299.769V296.003L183.836 292.148L181.863 294.121L176.752 290.623L174.6 288.471L170.834 288.829L168.314 289.288V285.188L169.371 281.75L166.462 280.823L163.156 281.485L158.924 279.502L155.485 278.18L152.709 276.856L150.99 275.138L150.461 276.857H147.816L145.832 274.475H142.923L142.195 271.5L140.543 269.848L138.294 268.724H135.584L133.401 270.906H129.963L128.243 272.625L125.399 272.294L123.085 269.98H118.722L116.341 268.525L113.233 268.724L111.448 266.939H107.878L106.025 265.087L104.797 262.43L101.628 265.089L101.321 267.644L99.4809 269.484L99.0724 273.779L97.9473 276.232L96.7204 278.379H93.8581L92.6312 281.855L89.8707 278.481L86.3936 278.789V271.835L82.9178 268.564L79.0322 267.541L80.2591 264.474L81.2824 261.203L78.4188 258.339L76.5785 254.251L77.1919 251.388L81.0775 247.503L83.3264 243.413L82.3044 239.732L85.5765 238.915L90.4841 235.848V231.554L92.5281 229.1L97.6406 228.895L99.8895 226.236L100.094 223.169L104.389 221.534L107.864 216.831L112.568 217.035L116.658 214.581L122.179 215.808L122.997 212.74L124.837 210.9L128.313 212.536L131.175 215.603L135.674 217.035L137.31 220.715L138.947 224.806L141.4 222.352L140.991 216.421L137.31 213.149V206.197L140.582 205.379L141.604 204.357L137.106 202.517L134.448 199.45H153.168L180.251 199.245L188.84 196.177V190.861L190.271 177.365H195.997L200.905 173.48V168.164L204.586 166.732V159.779L207.856 159.575L215.014 153.849L218.49 155.485L226.056 141.376ZM238.502 191.952L237.76 193.065L239.059 194.736L240.729 193.065L238.502 191.952ZM411.452 194.549H409.41L407.183 191.21L405.885 191.952L401.988 188.241L399.018 185.086L400.132 181.745L403.101 180.818L404.214 178.963L402.173 177.293L402.359 172.838L401.06 172.468L399.76 169.127L396.978 168.941L394.751 165.787L395.493 161.704L398.461 157.622L401.988 157.993L403.101 159.292L404.399 159.849L404.956 157.436L409.225 156.138L412.566 152.611L410.339 150.199L413.308 148.343L416.647 149.642L417.576 146.859V144.075H421.843L423.885 146.116L426.018 143.983L426.482 142.034L431.122 141.106L429.545 139.529L425.555 138.137V136.653L430.195 135.353L435.019 134.055L437.431 131.643H440.585V129.416L445.04 129.229L442.628 126.817L446.525 126.632L448.009 128.116L447.823 124.405L449.679 122.549L447.638 120.137L448.937 118.095L451.164 120.322H453.948V117.538L458.029 119.023L460.071 116.796L462.113 114.384H464.711L469.164 112.343L472.319 113.456H476.958L480.02 110.394L483.639 110.672L485.308 113.086H489.205L491.061 114.941L494.402 114.012H499.041L502.103 110.951L505.721 109.003L510.546 107.146H514.999L517.598 111.229V115.683L513.701 119.209L510.175 122.549L505.536 122.921L499.969 125.518L494.958 123.663L492.546 126.075L486.793 125.89H479.37L476.586 128.859H470.835L466.566 131.271L467.866 134.24L464.895 135.353L461.37 134.982H458.216L457.844 137.024L454.505 136.095V139.436L451.164 141.848L448.38 143.889V140.735L446.153 142.777L446.71 146.488H444.483L442.906 144.91V146.673V149.457L441.282 147.833L439.195 149.92L437.431 151.684H435.018L433.163 154.096L430.751 158.178H426.854L423.698 160.776V164.303L420.544 165.602L419.43 169.313L416.833 171.911V176.551L415.533 179.89L417.203 184.714L415.719 189.54L417.76 192.695L418.688 196.035L417.575 197.149L414.421 198.634V196.22L411.452 194.549ZM529.662 12.1428L528.128 12.6029L529.355 14.2898V15.8235H531.502V12.9096L529.662 12.1428ZM529.202 25.1786L528.128 26.8655L524.141 27.6324L521.534 29.0126L523.527 29.9328L522.607 32.0799L524.294 32.5399H527.668L530.353 29.8555L532.346 27.8618L531.656 24.8718L529.202 25.1786ZM516.473 22.418L515.63 23.2609L517.24 24.8718L520.153 23.7983V21.3445H518.466L516.473 22.418ZM514.25 27.2483L512.025 24.7185L510.338 26.4055L509.111 28.8593V31.9265L511.718 32.3866L512.332 34.2269L515.553 33.4601L517.624 31.3891L519.157 29.8555L520 27.3256H517.7L514.25 27.2483ZM505.124 37.9076L504.128 38.9039V40.8215H506.197L506.964 38.3677L505.124 37.9076ZM500.83 30.0861L499.756 29.0126H496.382V31.313L494.542 33.1534L495.615 34.2269L499.296 33.4601L500.676 34.8404L503.897 34.0736L504.817 31.9265L507.118 32.6933L505.891 29.9328L503.821 27.8618L500.83 30.0861ZM517.853 4.47467L516.933 6.31501L518.544 7.9247L520.077 6.39107L517.853 4.47467ZM514.479 8.76881H512.025V11.5293L514.632 14.1365V16.2836L516.933 15.21L515.553 12.2961L514.479 8.76881ZM499.143 16.7436H496.996L496.536 17.2037L498.3 18.9668L499.143 16.7436ZM500.983 20.271L499.527 21.7273L500.983 23.3382L502.67 23.1849L500.983 20.271ZM502.363 13.523V15.5167H504.51L504.05 13.2163L502.363 13.523ZM505.355 18.5067V20.271H507.118L505.737 18.8907L505.355 18.5067ZM507.118 22.5714L507.884 23.3382L509.265 21.958L507.118 22.5714ZM509.265 14.4432V16.5903L511.105 16.7436V14.4432H509.265ZM506.504 10.1491L507.578 12.1428L508.575 11.1453L507.578 10.1491H506.504ZM486.72 23.0315L485.571 24.1811L487.565 26.1748L489.788 26.2521V22.5714L488.254 20.5777L486.72 23.0315ZM491.781 20.5777L492.548 22.7248H494.082V20.8844L491.781 20.5777ZM483.193 8.30872L481.659 9.84234V11.5293L479.896 13.2924L476.752 11.0692L474.145 12.4495V14.2898L470.924 11.9894L468.47 12.9096L469.237 16.5903L471.538 15.8235V18.2773L473.991 18.8907L476.216 16.6663L479.359 15.3634L481.966 16.1302H485.8L488.561 13.3697L485.954 10.7625L487.718 8.99823L484.727 7.23518L483.193 8.30872ZM474.451 4.47467H471.078L469.084 2.48096L467.704 5.24148L469.468 7.00452L470.157 9.07553L474.145 7.69527L475.525 9.07553L478.132 8.002L479.206 9.07553V6.7751L477.443 5.01082H475.832L474.451 4.47467ZM477.443 20.6538H476.138L476.599 22.5714L479.359 22.7248L477.443 20.6538ZM477.979 24.7185L476.599 26.0987L477.672 27.1723L480.279 27.7857L478.592 26.0987L477.979 24.7185ZM489.174 4.93475V6.92846H490.708L492.241 5.39484L489.174 4.93475ZM2.60635 201.106L5.78893 201.82L8.51632 201.041L9.5555 199.027L12.0228 199.416L14.3294 201.723L14.4263 204.874L16.3096 205.458L16.6997 207.926L19.6222 208.445L20.2712 206.107L18.6812 204.517L20.0442 203.152L20.9215 204.03L23.7139 206.366V209.874L23.3237 212.927L24.9469 215.589L26.5713 216.692L27.1553 220.655L25.7272 223.641L18.9081 227.084L8.58134 214.809L2.60635 201.106ZM424.443 205.498L421.474 206.983L419.247 207.725L419.804 212.55L420.175 215.149L422.216 215.705L422.959 219.601L426.856 219.973L428.155 216.819L426.298 213.664L426.485 210.138L424.443 205.498ZM358.751 189.355L354.669 190.467L352.256 193.623L350.401 196.035L351.699 199.56L354.669 200.675L357.452 201.787L360.051 199.932L363.205 200.487L364.875 196.592L362.278 193.251L362.091 190.467L358.751 189.355Z" fill="#0E1A23" stroke="#132D42" stroke-width="2"/>
</svg>
