<svg width="523" height="593" viewBox="0 0 523 593" fill="none" xmlns="http://www.w3.org/2000/svg">
<path d="M338.375 307.652L338.247 305.227L335.246 305.036L333.011 307.271L330.202 305.994L326.498 307.399L324.709 305.229H322.794L321.133 306.889H317.811L315.64 305.868V301.78L316.917 300.503V297.821L315.895 294.756L318.323 290.924L319.728 286.965L315.512 282.75L314.363 277.13L310.786 275.213V271.637L312.192 270.36L310.786 268.954V265.634L306.956 264.101L305.805 265.251L304.655 261.803L306.572 259.885L308.615 256.565L311.681 255.671L310.53 247.752L309.635 242.643V239.96L306.059 233.447L305.676 226.677L302.101 224.25L300.567 220.673L299.464 217.921L299.464 216.234L303.758 214.547L308.206 208.26L311.273 207.339L315.414 208.566L316.641 205.806V202.432L314.34 200.131L315.414 196.144L318.481 195.07V191.85L318.328 187.709L321.702 185.409L325.613 181.497L326.457 178.66H328.144L327.838 174.519H324.617L321.703 168.998V163.937L319.096 161.33L313.575 157.342V155.195L309.434 153.661L307.983 150.611L308.686 146.501L306.946 144.762L305.131 142.022L304.205 139.653L305.611 138.172L306.018 136.209L304.39 134.913L303.859 131.322H301.405L298.338 131.527L298.543 134.799L298.338 136.436L300.792 136.641L302.326 138.174L300.383 141.957L297.111 143.184L293.635 146.046C293.635 146.046 293.022 149.727 291.182 149.727C289.341 149.727 286.069 150.749 286.069 150.749L282.388 152.998L283.207 157.087L279.526 158.724L280.548 155.043L281.366 149.727L284.74 146.353L286.274 141.752L291.182 140.525L292.409 134.186L295.476 131.118L296.703 125.393V123.347L300.792 118.44L303.144 116.088L305.086 112.1L307.131 109.238V105.149L309.482 102.798L306.926 98.402L302.837 96.1531L301.2 94.5176L305.291 95.336L305.699 91.0419L302.939 88.2813L300.792 86.1343L299.36 87.7697L296.906 85.7245L294.862 81.6352L292.51 79.2833L289.341 80.8169L286.989 78.4649L282.797 81.4303H278.708L274.209 83.8841L276.049 85.7245L275.027 89.2003C275.027 89.2003 271.755 87.7685 270.528 87.7685C269.301 87.7685 269.506 85.1098 269.506 85.1098L272.165 82.4511L269.199 79.4857H265.212L263.933 80.7641L257.442 80.4059L260.099 76.9301L263.27 73.761L262.35 69.5687L259.282 69.9772L255.192 67.5235L251.921 70.9993L248.24 73.6579L245.173 81.2242L244.15 84.4963V89.4039L245.786 90.6308L246.195 94.1066H244.763L240.06 95.5384H235.561L236.788 97.7873L239.242 99.6277L241.082 102.081L236.993 101.263L232.904 102.081L232.291 105.354L225.95 105.15L223.394 107.706V104.74L225.336 101.059L221.656 101.673L220.634 103.922L216.135 104.535L210.819 105.762L208.773 107.807L212.454 109.034L211.227 110.466L205.706 112.102L203.764 114.044L196.096 115.169L193.949 117.316L188.326 119.463L186.077 124.166L180.351 123.961L180.556 127.028L183.418 127.233L180.556 129.482L178.511 132.344L180.249 134.083L179.124 136.638L180.76 138.479L178.306 139.092C178.306 139.092 178.306 136.025 176.772 137.558C175.239 139.092 174.42 139.91 174.42 139.91L176.466 141.956L178.919 142.774L180.965 145.841L178.919 147.886H175.035L169.719 150.135H161.744V151.362L156.836 149.522H147.226L143.137 153.203L144.159 158.314L145.794 159.951L143.954 164.041L142.727 168.949L144.363 170.584L147.225 175.287L151.11 176.717L150.906 179.581L153.154 182.648L152.336 185.919H146.815L143.236 182.341L141.907 181.011L143.339 176.923L138.023 174.06L135.263 171.299L131.889 171.81L127.799 170.993L128.004 173.446H129.948L130.766 175.695L132.505 177.434L135.06 177.945L137.923 179.479L138.638 182.138L136.696 184.08L137.104 186.227L133.219 186.84L130.407 189.653L131.685 192.361L132.503 191.238L133.832 193.793L138.228 196.247L137.819 201.155V208.209H133.73L132.197 210.663L129.181 213.679L125.449 216.491L125.654 220.273L127.442 222.062L128.004 224.261L130.561 226.818L134.447 227.431L134.958 230.09L136.287 231.419L138.741 229.271C138.741 229.271 139.635 230.831 139.968 230.498C140.3 230.166 142.422 228.146 142.422 228.146L142.32 232.134L145.489 232.747V235.916L147.431 240.619L146.306 243.584H144.772L146.408 246.652L145.079 250.537L142.88 252.735L142.114 255.24L139.251 254.627L139.149 257.899L141.143 259.892L141.807 263.623L140.07 266.691L141.91 268.531V271.395L146.408 274.052L148.146 277.631L145.384 280.186V282.231L146.818 284.684V288.365L144.977 289.798L147.225 293.886H149.679L152.132 296.34L153.973 300.021L154.383 304.724L152.339 306.768L153.359 311.063L158.063 312.086L160.414 314.437L162.766 312.086L163.584 316.993L162.767 321.288L164.198 324.558L161.437 327.319L158.473 331.103L156.427 334.988L159.494 339.282V344.394L156.53 347.359L156.223 351.96L154.483 353.697L149.677 358.503L149.744 364.781L154.906 368.181L160.699 370.7L157.677 375.736L150.373 378.884L145.714 383.543L138.159 378.005L130.1 381.404L128.589 386.442L123.174 383.672L119.27 384.678L114.548 379.957L109.447 381.907L102.899 381.153L101.136 378.508H94.0855L89.1742 376.368L82.625 377.374L77.8401 388.079L78.218 394.5L71.4173 396.388L65.8766 400.419L65.2472 404.701L59.4514 408.089L57.611 410.696L54.3144 413.994L50.2497 415.911H45.3421L42.2748 414.991L38.7475 413.15L37.3672 415.144H33.2265L30.6193 413.457L28.3189 412.383L24.7915 411.31L22.031 410.39V407.936L24.0247 405.942L20.8041 402.722L17.7369 404.869L16.3161 407.237L13.4427 410.39L13.136 413.61L14.5163 417.751L11.2957 419.285V421.585L14.0562 422.965L15.9738 424.883L16.9701 427.26L20.0373 428.947V431.707L18.581 433.165L14.6696 433.854L9.5326 438.992V442.596L8.68851 444.743L6.54144 446.89L4.85446 447.197V449.957L2.78467 452.028L1.63385 454.405V456.858L4.70109 458.291L6.33656 463.403L5.31454 466.266V470.151L2.75767 472.708L3.88276 476.285L8.38178 477.512L12.471 475.058L15.4364 478.022L14.1077 482.829L18.197 484.056L20.4459 481.806L24.1266 484.056H28.217V486.917L23.3094 489.168L22.0825 494.689H25.5583L29.8525 492.645L32.1014 495.916L37.009 493.258L42.7349 491.621L46.1089 488.247L49.278 488.144L53.5721 487.941L56.6393 484.873H60.32L61.3433 487.737L58.8895 491.008H56.0259V494.689L59.5029 496.119L62.0585 498.676L64.4105 503.687L66.6594 505.934L70.1352 509.411L72.589 517.59V524.338L75.8611 527.405V532.313L79.3369 538.447L80.3602 543.765L81.7907 548.468L84.4494 553.783L88.9484 552.966L91.1973 548.262L94.4695 547.242L96.7184 549.899V552.966L98.9673 555.214L101.422 557.668L105.92 556.851L107.965 558.897L113.077 558.078L115.633 555.523H120.848L123.352 558.027L127.186 559.714L130.049 562.372L130.867 567.279L134.344 569.529L135.979 573.21L140.273 575.868V580.775L145.794 582.206L150.702 583.842L156.018 581.798L159.188 578.628L160.312 582.819L162.562 586.91L164.403 589.977L170.332 591L172.991 588.34L178.102 585.479L184.237 585.683L187.612 582.309L192.416 581.185L193.235 576.891H197.324L201.414 572.8L208.162 568.506H213.479L214.91 564.212H219.408L222.987 560.634L227.383 562.575L230.86 566.052L236.381 563.805L241.084 565.235L244.969 569.12L248.24 572.39L254.171 574.437L258.26 575.664L263.986 574.641L269.507 576.074H275.437H279.322L283.923 571.473L288.728 568.302V563.395L285.15 559.815V555.216L282.593 552.149L283.412 546.832L286.172 544.071L288.728 538.857L291.897 535.687L294.249 533.336L298.953 536.813H306.928L310.915 540.798L316.743 539.267H321.854L327.171 541.311L330.955 545.092L333.919 551.33L337.09 554.5L342.098 556.647L349.459 557.26L354.572 555.827L359.888 554.6L364.692 549.796H370.521L379.927 548.466L382.79 550.306L389.947 551.33H397.717L400.579 554.193L402.216 557.26L407.737 559.101L413.871 558.281H422.255L428.186 556.441H434.729L437.284 553.886L442.295 548.876L448.838 545.809L453.541 542.538L457.119 538.958L458.858 532.926L466.219 525.565L471.331 523.315L475.216 524.748L479.51 526.995L485.236 523.724L489.326 521.271L494.847 522.294L502.412 522.907L509.16 520.453L513.147 516.466L515.907 510.025L520.202 508.798V503.071L518.361 501.23L515.294 495.302L517.544 489.575V484.054L518.771 475.262L520.406 471.785L518.771 465.243L515.907 462.38L513.352 459.823L510.183 462.38L507.933 459.516L509.569 455.428L511.818 448.68L514.987 445.51L521.429 441.726L518.466 436.617L517.137 433.957H513.66L512.638 429.562L510.899 426.903L513.966 425.062V423.632H512.331L509.57 420.667L507.322 420.361L507.832 415.146L506.503 412.793L505.071 408.806L501.801 407.172L499.449 410.442L496.995 409.522L496.79 406.045L495.154 404.411L492.752 403.745L490.247 406.251L489.02 409.319L484.828 408.192L483.499 405.638L485.953 402.571L484.521 400.218L481.76 401.138L478.183 400.218L475.717 397.728L475.67 395.265L472.35 394.371V390.795L469.285 389.772L466.092 385.557L461.622 383.899L460.665 379.236L458.557 377.13L459.259 374.894L453.449 369.083L451.787 364.485L449.233 364.23V361.292L446.487 358.291L444.252 356.055H440.993V359.184L438.121 362.057L433.651 361.419V358.482L431.736 356.822V353.118L427.776 352.607L423.179 350.435L418.835 350.947L414.493 350.309L412.067 353.245L410.853 357.269L407.98 360.142L409.129 364.101L407.597 368.7L403.765 372.531V379.684L398.401 383.386V387.601L396.103 384.409V380.831L393.42 378.151L390.866 379.3L390.228 382.619L383.458 385.173H380.265L378.988 389.005L376.944 392.071L372.538 392.389L367.622 387.474L367.111 377.256L367.749 371.127V365.379L368.515 360.27V355.289L364.939 353.756L362.385 352.862L362.002 350.435L360.82 347.659L358.489 345.326V342.58L360.085 340.984L360.532 337.216L358.298 334.982H355.361L352.167 333.45V330.511L353.444 329.234L352.039 327.829L350.89 323.36L348.335 318.761L345.271 316.591L341.822 317.613L338.501 317.868V313.909L341.248 313.142V310.523L338.375 307.652ZM269.612 71.7759L268.868 72.8899L270.539 74.0027L271.28 72.7034L269.612 71.7759ZM261.632 55.2606L259.775 56.3734L262.374 57.6727L264.229 58.9708L266.271 58.415L265.714 56.0029L263.672 56.5587L261.632 55.2606ZM243.445 46.1669V43.5695L243.631 38.9294L242.333 36.3321L240.476 36.5173L237.879 39.6717L238.064 42.4555L236.95 44.3118L237.693 49.3224L235.466 51.5493L235.651 56.5587L234.538 60.8271L233.609 65.0954L235.28 66.023L238.807 63.2391L240.848 61.9411L245.487 59.529L249.198 59.1572L253.839 55.6311L256.064 51.3628L254.58 47.6514L252.91 44.8676L250.683 45.7963L248.456 41.8985L246.785 40.2287L244.744 42.6408L243.445 46.1669ZM226.744 26.3108L225.074 28.3523L223.589 31.1361L222.29 30.5791L223.218 27.053V23.3416L219.136 24.6409C219.136 24.6409 216.724 25.1979 216.167 25.3832C215.61 25.5685 212.826 26.4972 212.826 26.4972L211.527 29.2811L210.784 31.6931L209.114 33.7347L209.671 36.1468L206.517 38.5589L208.002 39.8581L210.227 39.1159L212.084 41.7132L212.269 44.1253L213.939 46.1669L218.207 46.5374L218.764 48.9495L221.733 47.0944L223.218 49.5065L227.3 50.991L231.197 49.1347L233.054 46.5361L231.569 43.5671L229.156 40.2262L231.012 38.9269L231.754 35.7726L230.826 32.2465L231.197 28.7204L226.744 26.3108ZM223.404 83.0965L221.548 85.3221L219.136 85.8791L221.363 87.5489L223.589 85.3221L223.404 83.0965ZM192.414 82.3542L191.486 83.8375L192.784 84.9515L194.455 82.5382L192.414 82.3542ZM173.3 133.199L171.073 134.313C171.073 134.313 172.001 137.097 172.001 136.725C172.001 136.354 173.671 135.983 173.671 135.983L173.3 133.199ZM157.342 116.499L155.3 118.167L156.413 120.395L158.268 120.024L157.342 116.499ZM156.598 140.809L156.228 142.849H159.382L161.053 144.519L161.238 141.735L159.382 141.364L156.598 140.809ZM145.836 30.7644L144.722 31.8784L146.021 32.6207L148.063 34.1052L148.62 32.2489L145.836 30.7644ZM134.517 160.106L133.217 161.776L133.96 164.003L135.259 165.674L137.114 163.634L137.856 161.22L136.186 159.549L134.517 160.106ZM161.437 6.74173L159.904 7.04845L158.907 8.04471L160.441 9.57833L162.511 8.8888L163.738 7.6619L161.437 6.74173ZM196.557 3.67449L195.177 5.05475L196.25 6.12829L197.401 7.2779L199.778 5.05475V3.52113L196.557 3.67449ZM211.28 1.68079L210.82 4.74803L208.059 5.97493L203.919 8.73544V12.5695L205.606 14.2565L203.382 16.4796L201.925 19.3174L203.919 22.0779L204.685 24.8385L208.213 27.9057L211.433 24.8385H213.58L216.801 22.9981L220.635 21.7712L219.561 18.0905V13.4897L221.862 11.496L219.945 9.57833L216.034 5.6682L214.654 2.60096L211.28 1.68079ZM202.232 27.1389L199.624 26.8322L200.084 30.2061V32.3532L203.458 33.2734L204.839 34.6536L206.91 32.5827L208.059 29.5927L206.066 28.0591L202.232 27.1389ZM161.284 105.66L160.288 106.657L161.591 107.807L163.738 107.194L161.284 105.66Z" fill="#0E1A23" stroke="#132D42" stroke-width="2"/>
</svg>
