<svg width="303" height="341" viewBox="0 0 303 341" fill="none" xmlns="http://www.w3.org/2000/svg">
<path d="M60.7258 311.928L67.6786 311.724L72.3813 313.155H75.8571L79.7427 315.201L83.832 314.382L86.1839 312.031H88.331L93.6472 314.791H99.1682L103.667 313.974L107.348 316.018L111.847 314.791H116.958L119.413 311.314L123.911 311.724L128 314.178H133.113L134.953 317.859H138.634V315.405L139.785 313.028L141.854 310.957V308.197L143.541 307.89L145.688 305.743L146.533 303.596V299.992L149.446 297.079L151.67 294.854L155.581 294.165L157.037 292.707V289.947L153.97 288.26L152.974 285.883L151.056 283.965L148.296 282.585V280.285L151.516 278.751L150.136 274.61L150.443 271.39L152.896 268.936L154.737 265.869L157.804 263.722L161.025 266.942L159.031 268.936V271.39L161.791 272.31L165.319 273.383L167.619 274.457L170.226 276.144H173.6L175.747 274.15L179.275 275.991L182.342 276.911H187.25L191.314 274.994L194.611 271.697L196.452 269.088L202.248 265.697L202.878 261.415L208.418 257.385L215.218 255.497L214.84 249.075L217.233 243.156L219.625 238.372L226.173 237.365L231.084 239.505H238.136L239.899 242.15L246.447 242.905L251.548 240.954L256.27 245.675L260.174 244.669L265.589 247.44L267.1 242.403L275.159 239.003L282.715 244.544L287.374 239.886L294.678 236.737L297.7 231.701L291.908 229.182L286.745 225.782L286.722 219.504L291.571 214.697L293.31 212.959L293.617 208.358L296.582 205.393V200.281L293.515 195.987L295.56 192.102L298.526 188.318L301.286 185.557L299.854 182.285L300.673 177.991L299.854 173.083L297.502 175.435L295.15 173.083L290.448 172.061L289.426 167.767L291.471 165.722L291.062 161.019L289.222 157.339L286.768 154.885H284.314L282.065 150.796L283.906 149.364V145.683L282.474 143.229V141.184L285.235 138.628L283.496 135.05L278.997 132.391V129.529L277.157 127.688L278.895 124.621L278.23 120.889L276.236 118.895L276.338 115.623L279.201 116.236L279.967 113.731L282.166 111.532L283.495 107.647L281.859 104.58H283.393L284.518 101.614L282.576 96.9115V93.7424L279.407 93.129L279.509 89.1416L277.055 91.4935L275.828 90.2666L273.374 92.4137L272.045 91.085L271.534 88.4263L267.648 87.8128L265.093 85.2572L264.531 83.0586L262.742 81.2698L262.537 77.4872L266.269 74.6752L269.285 71.6595L270.819 69.2057H274.908V62.151L275.316 57.2434L270.92 54.7896L269.745 52.3874L268.773 53.3591L267.495 50.6501L268.568 49.5766L270.307 47.8381L274.192 47.2246L273.784 45.0775L275.726 43.1354L275.011 40.4767L272.148 38.9431L269.388 38.2278L267.854 36.6941L267.036 34.4452H265.094L264.889 31.9914L262.537 34.3434L262.844 36.6954L263.662 39.3528L261.208 41.603L257.936 38.3308L255.891 36.2856L251.597 39.1492L253.029 43.647L256.096 46.7142V48.3509L259.776 50.1912L262.128 52.542L263.457 55.7123V58.1661L259.981 54.8927L256.812 51.7236L253.643 53.6658L251.189 51.6218L246.895 48.3509V44.6702V39.5565L250.576 35.877L251.394 30.5609V24.6301L252.416 20.3359H249.144L247.712 23.4032L249.144 26.8802L247.509 31.1743L245.055 35.0587H240.761L235.648 40.1712L232.376 43.4433L235.342 46.4075L234.83 50.5986L236.057 54.4854L237.489 58.9832L233.399 63.0737L231.559 68.3886L228.697 72.8888L229.31 79.4307L226.856 81.8845L227.47 85.7713H231.15L232.786 88.019L235.853 86.5884L238.205 84.2376L241.067 87.1L246.077 88.8385L247.712 90.474L250.371 92.9265L252.416 97.017L250.984 100.288L252.211 104.175L250.984 106.832L247.712 107.855L248.121 111.536V113.99L249.859 115.727L254.46 117.057V119.918L249.758 118.897L245.668 114.807V111.74L245.463 106.832L248.736 103.56L246.282 97.2207L244.34 95.2785L243.011 91.2923L238.308 91.9058H234.014L231.254 94.6663L228.493 97.4268L228.902 101.311L229.924 105.605L228.697 110.513L226.141 113.07L222.972 116.239L221.132 118.079V122.373L217.042 124.622L211.93 126.054L210.703 127.281H208.044C208.044 127.281 205.079 128.61 205.897 129.428C206.716 130.246 205.182 133.007 205.182 133.007H201.501L199.047 129.53L195.572 129.735L191.482 126.872L188.415 125.441L185.348 120.738V116.852L188.415 117.874L190.562 120.021L193.936 122.168L197.003 120.124L202.116 121.146L204.978 119.511L208.046 115.012L213.362 109.696L217.861 108.469L218.679 100.903L223.178 97.4268L223.792 94.1547L220.213 90.5758L218.679 85.1578L220.315 81.2722L222.563 73.5023L223.995 64.7091L228.084 58.5746L229.106 53.0536L230.333 46.1008L226.858 43.0335L228.493 37.7174L234.321 31.8896L235.241 24.4264L237.286 22.3812L235.446 15.4283H231.152L228.698 12.9745H223.79L221.336 9.49873L217.451 11.544L215.202 16.4516L213.157 21.3592L210.498 27.2888L207.022 30.7645L205.489 32.2982L201.093 34.4452L197.003 35.877L194.755 38.7394L193.323 42.8299L195.981 43.647V46.7142L194.141 49.168L193.119 54.0756V57.3478L189.03 59.393L187.088 61.3339L189.235 65.7311L193.12 68.3898L192.302 74.1157L194.551 79.4319L197.823 80.4539L193.12 84.748V89.0422L189.031 91.496L186.169 86.9982V82.9077L182.693 78.205L179.421 73.0925L174.615 68.2868L173.011 65.0159L171.344 67.4697L168.124 70.6903L170.117 72.5821L170.526 74.1157L172.059 74.6273V81.5802H170.117L169.197 83.8291L167.562 84.6474L167.255 86.8963L166.943 88.4287L171.032 90.474V93.1327L167.25 94.6663L170.419 97.8354L165.511 100.289L161.831 103.97H157.945L156.513 108.469H149.561L143.018 109.901L136.474 113.581V118.08L131.114 117.875L127.135 118.488L124.988 120.941L121.154 122.935L117.32 126.769L113.793 127.229V124.009L111.186 123.089L108.041 126.233L103.823 130.451L101.983 133.979L102.75 138.426L97.8419 141.493L97.3818 145.174L93.2411 147.781L90.4805 152.995L91.2474 156.523L89.5604 159.743V162.504L84.4994 167.565L83.8081 171.169L81.8898 173.086L80.8163 176V179.22L76.6755 181.367V185.508L74.375 191.183L70.2343 194.863L67.167 199.464L64.4065 202.225H60.8792L57.5052 205.139V210.353L60.1124 214.494L58.7321 219.095L56.6623 221.164V222.622L58.8855 224.922L56.3556 227.452L53.8245 229.522L50.2972 228.755L46.6165 231.209L46.7698 233.203L48.3807 234.814L46.1564 237.037L44.6228 238.57L42.169 234.89H39.4085L37.2614 238.417L36.3412 242.251L32.9672 243.938H28.9798L27.7529 242.711L26.3727 245.472V248.999L24.763 250.61L22.0834 253.576L24.7102 257.212L29.4571 260.645H32.3857L34.8064 264.177L37.4049 261.579L38.2343 265.001L37.3007 268.112L34.8113 272.677V275.164L30.1957 276.254L27.4474 279.003L23.195 277.448V274.646L20.9142 272.365L17.5955 270.705L14.484 269.773L10.0243 273.092L10.8537 277.031L12.824 279.003L13.4461 284.5L16.0397 288.649L21.1216 289.165L23.2993 287.714L28.2781 289.271L29.7295 293.73V297.67H27.3444L25.8917 295.698L22.4699 296.01V297.461L19.3057 298.55L15.1061 302.751V305.034L12.4093 308.662V312.189H10.2316L7.43185 317.272L6.91286 320.279L3.69716 321.731L2.45184 323.907H9.71262L12.0977 322.972L15.4165 324.425H17.4911L18.9426 327.017L17.9059 329.61L14.0681 331.477L14.3798 334.07H16.5575L17.1709 337.285L18.8064 332.991L22.8969 334.012L26.3727 332.991L27.8045 329.31L26.3727 324.197L29.8485 322.766L35.1658 322.562L38.6417 326.037H41.504L44.0608 323.483L41.3003 320.722L39.0502 318.472L36.8013 317.041L39.6637 314.178L38.2331 311.111L39.6637 306.613H43.9578L48.6617 309.067L51.9326 311.928L55.6133 310.907L60.7258 311.928V311.928ZM262.052 27.4151L260.011 29.4567L257.784 31.313L259.826 32.7975L261.495 31.313H264.094L266.506 29.0849L264.279 26.8593L262.052 27.4151V27.4151ZM255.372 6.81797L253.702 8.30252L254.815 9.97232L257.042 8.48778L259.826 9.23005L259.083 7.56023L255.372 6.81797ZM246.835 14.2407L245.908 16.6528L247.392 17.9521L249.062 15.9105L246.835 14.2407V14.2407ZM226.981 2.17908L224.94 3.66361L225.682 5.33465L224.198 7.37497L224.568 8.67426L227.909 9.60179L231.063 8.11726L232.92 8.30374V6.44744L229.951 5.70517L231.435 4.03536L229.764 1.62329L227.724 2.36556L226.981 2.17908Z" fill="#0E1A23" stroke="#132D42" stroke-width="2"/>
</svg>
