<svg width="236" height="228" viewBox="0 0 236 228" fill="none" xmlns="http://www.w3.org/2000/svg">
<path d="M156.452 191.907H159.771H163.713L166.098 190.972L169.417 192.425H171.491L172.943 195.017L171.906 197.61L168.068 199.477L168.38 202.07H170.558L171.171 205.285L172.5 208.249L175.363 211.113L177.305 213.054L178.124 216.531L180.986 219.395L178.124 223.279L175.465 225.936H170.966L166.365 226.243L164.014 223.892L162.378 220.569H160.282L158.084 222.768H154.506L150.519 218.781L149.752 216.481L146.735 213.464V208.249L144.179 205.693H139.477L135.591 207.126L134.159 204.058L130.275 200.991L126.798 199.151L122.095 201.401L117.801 202.014L114.325 200.991L111.871 196.287L108.394 193.22L105.941 197.31H103.283V194.039L105.737 191.586L104.1 188.109L102.056 182.791L101.238 177.27L98.1706 173.59L93.263 171.749L91.8324 168.275L89.1738 165.615L84.2662 166.434H81.4026V162.547L79.972 158.459L74.9614 157.537L72.4057 160.094L67.7031 161.73L63.6126 159.48H59.3184L57.2744 162.547H52.9803H48.2763L47.2543 164.798L44.5957 167.455L44.1871 171.339L39.1777 170.422L36.2123 167.455V163.365L37.5422 159.377L35.3939 157.23H31.9181L31.7709 153.132L29.2779 150.638L28.7073 147.576H25.7861L23.8635 145.652L23.0084 141.52L20.0872 140.451L18.5916 141.947L15.8838 139.382L19.589 135.82L19.0185 130.119L14.1735 125.417L10.0413 125.561V123.138L7.33357 121.713L2.77442 121.142L1.49231 116.297L1.77573 112.734L3.27131 111.239L1.63339 107.035L4.5117 105.732L6.4821 105.627L8.50526 103.604L12.0829 101.687L16.128 99.1966L17.269 97.1219H20.6908L21.1067 90.693L19.4467 87.6846L20.173 82.2924L19.4467 79.0767L23.6991 74.5139L25.6695 75.4463L28.0031 73.8391L29.8177 72.0233V70.4173H32.1512L35.3154 67.2543L37.8036 66.6323L39.774 64.6607L39.0489 62.7933V60.8229L35.7289 58.1262V54.3928L38.0465 52.058L41.4536 51.3415L43.9638 48.83L48.0886 48.1123L52.5717 46.6768L57.8633 46.0498L60.4644 43.4488L61.5403 39.1449L63.8715 36.8125L66.7412 39.6823H70.866L72.4806 35.5575H76.6054L81.448 36.6334L87.7248 35.0188L90.0559 32.6877H93.6433L95.0776 36.0948L97.3204 38.3364H101.175L102.565 39.7264L105.749 36.5426L110.681 34.8397L112.744 36.9021L115.164 34.3023H120.904L121.622 24.6172L124.042 21.837L125.388 20.4924V16.7258L128.257 15.2916L123.773 10.6281L125.925 8.65528L129.799 10.3766L137.073 3.10234L139.272 1.21167L140.805 1.72328L144.691 6.32414L143.974 8.57305L145.815 9.49323L146.194 12.601L143.682 15.1124V19.2373L139.737 20.1329V22.8235L137.047 25.5141V28.5629L139.198 30.7149V33.7637L140.095 36.9929L138.84 39.8626L140.274 41.2969L142.606 38.4272L144.041 34.3023L147.628 33.4054L151.395 35.1992L153.726 37.5303L156.954 34.4814L158.658 36.1844L159.644 38.4272L162.693 38.0689L164.576 36.1844H167.894L171.018 34.9513V32.4976L168.948 30.4266L170.864 26.6698L175.005 28.9702L176.463 27.5127L177.919 28.9702L179.913 26.9765L182.52 27.8967L183.593 29.5837L183.133 32.1908L185.28 34.798L187.887 33.8778L192.335 35.8715L195.249 38.7854L198.469 37.0984L202.15 38.4787L204.221 36.4077L206.291 37.0984L207.748 38.5548L209.818 37.8652L211.045 35.2581H213.192L217.946 38.4787L222.547 40.9325L227.762 42.9262L234.816 43.9997V47.2203L230.676 49.3674V53.5082L228.375 59.1826L224.234 62.8633L221.167 67.4641L218.407 70.2246H214.879L211.505 73.1385V78.3528L214.112 82.4936L212.732 87.0945L210.662 89.1643V90.6218L212.885 92.9222L210.356 95.4521L207.825 97.5219L204.297 96.7551L200.617 99.2089L200.77 101.203L202.381 102.814L200.156 105.037L198.623 106.57L196.169 102.89H193.408L191.261 106.417L190.341 110.251L186.967 111.938H182.98L181.753 110.711L180.373 113.472V116.999L178.763 118.61L176.083 121.576L178.71 125.212L183.457 128.645H186.386L188.806 132.177L191.405 129.579L192.234 133.001L191.301 136.111L188.811 140.677V143.164L184.196 144.254L181.447 147.003L177.195 145.448V142.646L174.914 140.365L171.596 138.705L168.484 137.773L164.024 141.091L164.854 145.031L166.824 147.003L167.446 152.5L170.04 156.649L175.122 157.165L177.299 155.714L182.278 157.271L183.729 161.73V165.67H181.344L179.892 163.698L176.47 164.01V165.461L173.306 166.55L169.106 170.75V173.034L166.409 176.662V180.189H164.232L161.432 185.272L160.913 188.279L157.697 189.731L156.452 191.907V191.907Z" fill="#0E1A23" stroke="#132D42" stroke-width="2"/>
</svg>
