<svg width="59" height="23" viewBox="0 0 59 23" fill="none" xmlns="http://www.w3.org/2000/svg">
<path d="M54.4075 6.48171C54.4075 7.19262 54.3239 7.69444 54.1148 7.90353C53.9475 8.11262 53.613 8.23808 53.1112 8.23808C52.9857 8.23808 51.7311 8.23808 51.5639 8.23808V3.2617C51.9402 3.2617 52.9857 3.2617 53.0693 3.2617C53.6966 3.2617 53.9475 3.47079 54.073 3.55443C54.2821 3.76352 54.3657 4.26534 54.3657 4.93443V6.48171H54.4075ZM58.213 2.8017C58.0875 2.21625 57.8366 1.71443 57.4603 1.29624C57.0839 0.878061 56.4984 0.585333 55.7457 0.334424C54.993 0.125332 53.9057 -0.00012207 52.5257 -0.00012207H47.3402V19.5708H51.6057V11.7508H53.8639C54.993 11.7508 55.913 11.5835 56.5821 11.2908C57.293 10.9981 57.753 10.5381 58.0039 9.99444C58.2548 9.40899 58.3803 8.5308 58.3803 7.27626V5.56171C58.4221 4.30716 58.3803 3.38716 58.213 2.8017Z" fill="white"/>
<path d="M33.4567 19.6126H37.973V3.30345H40.9421V19.6126H45.2912V0.041626H33.4567V19.6126Z" fill="white"/>
<path d="M26.5161 15.5144H22.3761C23.1706 11.6253 23.5888 7.81983 23.5888 4.05618V3.26163H26.4742V15.5144H26.5161ZM30.8233 0.041626H19.407V0.627083C19.407 3.72164 19.2397 6.6071 18.8633 9.19983C18.5288 11.8344 18.0688 13.9253 17.4833 15.5144H16.4379V22.9999H19.9924V19.6126H28.3142V22.9999H31.8688V15.5144H30.8233V0.041626Z" fill="white"/>
<path d="M2.76233 17.5223C2.76233 17.5223 3.01324 17.5641 3.18052 17.4386C3.51506 17.2296 3.72416 16.895 3.68234 16.2259C3.64052 15.3477 2.8878 14.6368 1.88416 14.6786C0.629611 14.7205 -0.0394819 15.6823 0.00233641 16.9368C0.0441547 18.0241 0.587785 18.6932 1.13142 19.0696C1.71688 19.4877 2.38598 19.6132 3.3478 19.6132C3.51507 19.6132 3.64052 19.6132 3.64052 19.6132C4.26779 19.6132 4.39325 19.6132 4.76962 19.6132C7.27872 19.4877 8.03144 18.735 8.19871 15.055V3.26225H11.0842V19.655H15.1405V0.0422363H4.39326V16.8532V16.9786C4.35144 16.9786 4.30961 17.9823 2.76233 17.5223Z" fill="white"/>
</svg>
